<svg width="20" height="20" viewBox="0 0 20 20" fill="none" xmlns="http://www.w3.org/2000/svg">
<path fill-rule="evenodd" clip-rule="evenodd" d="M19.6 9.9999C19.6 15.3018 15.302 19.5999 10 19.5999C4.69809 19.5999 0.400024 15.3018 0.400024 9.9999C0.400024 4.69797 4.69809 0.399902 10 0.399902C15.302 0.399902 19.6 4.69797 19.6 9.9999ZM12.4 6.3999C12.4 7.72539 11.3255 8.7999 10 8.7999C8.67454 8.7999 7.60002 7.72539 7.60002 6.3999C7.60002 5.07442 8.67454 3.9999 10 3.9999C11.3255 3.9999 12.4 5.07442 12.4 6.3999ZM9.99994 11.1999C7.57889 11.1999 5.49276 12.6338 4.54451 14.6988C5.86486 16.2303 7.8192 17.1999 10 17.1999C12.1808 17.1999 14.1351 16.2304 15.4554 14.6989C14.5072 12.6339 12.421 11.1999 9.99994 11.1999Z" fill="#6B7280"/>
</svg>
