<svg width="18" height="18" viewBox="0 0 18 18" fill="none" xmlns="http://www.w3.org/2000/svg">
<path d="M2.99998 0.600098C1.67449 0.600098 0.599976 1.67461 0.599976 3.0001V5.4001C0.599976 6.72558 1.67449 7.8001 2.99998 7.8001H5.39998C6.72546 7.8001 7.79998 6.72558 7.79998 5.4001V3.0001C7.79998 1.67461 6.72546 0.600098 5.39998 0.600098H2.99998Z" fill="#6B7280"/>
<path d="M2.99998 10.2001C1.67449 10.2001 0.599976 11.2746 0.599976 12.6001V15.0001C0.599976 16.3256 1.67449 17.4001 2.99998 17.4001H5.39998C6.72546 17.4001 7.79998 16.3256 7.79998 15.0001V12.6001C7.79998 11.2746 6.72546 10.2001 5.39998 10.2001H2.99998Z" fill="#6B7280"/>
<path d="M10.2 3.0001C10.2 1.67461 11.2745 0.600098 12.6 0.600098H15C16.3255 0.600098 17.4 1.67461 17.4 3.0001V5.4001C17.4 6.72558 16.3255 7.8001 15 7.8001H12.6C11.2745 7.8001 10.2 6.72558 10.2 5.4001V3.0001Z" fill="#6B7280"/>
<path d="M10.2 12.6001C10.2 11.2746 11.2745 10.2001 12.6 10.2001H15C16.3255 10.2001 17.4 11.2746 17.4 12.6001V15.0001C17.4 16.3256 16.3255 17.4001 15 17.4001H12.6C11.2745 17.4001 10.2 16.3256 10.2 15.0001V12.6001Z" fill="#6B7280"/>
</svg>
