<svg width="16" height="20" viewBox="0 0 16 20" fill="none" xmlns="http://www.w3.org/2000/svg">
<path fill-rule="evenodd" clip-rule="evenodd" d="M3.20005 0.399902C1.87457 0.399902 0.800049 1.47442 0.800049 2.7999V17.1999C0.800049 18.5254 1.87456 19.5999 3.20005 19.5999H12.8C14.1255 19.5999 15.2 18.5254 15.2 17.1999V6.89696C15.2 6.26044 14.9472 5.64999 14.4971 5.1999L10.4 1.10285C9.94996 0.652759 9.33951 0.399902 8.70299 0.399902H3.20005ZM4.40005 9.9999C3.73731 9.9999 3.20005 10.5372 3.20005 11.1999C3.20005 11.8626 3.73731 12.3999 4.40005 12.3999H11.6C12.2628 12.3999 12.8 11.8626 12.8 11.1999C12.8 10.5372 12.2628 9.9999 11.6 9.9999H4.40005Z" fill="#6B7280"/>
</svg>
