<svg width="23" height="25" viewBox="0 0 23 25" fill="none" xmlns="http://www.w3.org/2000/svg">
<path d="M15.2765 18.7686H21.295L19.6039 17.0775C19.1452 16.6189 18.8876 15.9968 18.8876 15.3482V11.5464C18.8876 8.40178 16.8779 5.72658 14.0728 4.73512V4.32416C14.0728 2.99458 12.9949 1.91675 11.6654 1.91675C10.3358 1.91675 9.25796 2.99458 9.25796 4.32416V4.73512C6.45287 5.72658 4.44314 8.40178 4.44314 11.5464V15.3482C4.44314 15.9968 4.18549 16.6189 3.72686 17.0775L2.03574 18.7686H8.05425M15.2765 18.7686V19.9723C15.2765 21.9667 13.6597 23.5834 11.6654 23.5834C9.671 23.5834 8.05425 21.9667 8.05425 19.9723V18.7686M15.2765 18.7686H8.05425" stroke="#374151" stroke-width="2.225" stroke-linecap="round" stroke-linejoin="round"/>
</svg>
