<svg width="18" height="20" viewBox="0 0 18 20" fill="none" xmlns="http://www.w3.org/2000/svg">
<path d="M7.79998 0.399902C6.47449 0.399902 5.39998 1.47442 5.39998 2.7999V12.3999C5.39998 13.7254 6.47449 14.7999 7.79998 14.7999H15C16.3255 14.7999 17.4 13.7254 17.4 12.3999V5.69696C17.4 5.06044 17.1471 4.44999 16.697 3.9999L13.8 1.10285C13.3499 0.652759 12.7394 0.399902 12.1029 0.399902H7.79998Z" fill="#6B7280"/>
<path d="M0.599976 7.5999C0.599976 6.27442 1.67449 5.1999 2.99998 5.1999V17.1999H12.6C12.6 18.5254 11.5255 19.5999 10.2 19.5999H2.99998C1.67449 19.5999 0.599976 18.5254 0.599976 17.1999V7.5999Z" fill="#6B7280"/>
</svg>
