<svg width="20" height="22" viewBox="0 0 20 22" fill="none" xmlns="http://www.w3.org/2000/svg">
<path fill-rule="evenodd" clip-rule="evenodd" d="M12.4 0.903076L7.60002 5.70308V21.0972L12.4 16.2972V0.903076Z" fill="#6B7280"/>
<path fill-rule="evenodd" clip-rule="evenodd" d="M2.44855 2.9516C2.10535 2.60841 1.58921 2.50574 1.1408 2.69148C0.692395 2.87721 0.400024 3.31478 0.400024 3.80013V15.8001C0.400024 16.1184 0.526453 16.4236 0.751496 16.6487L5.20002 21.0972V5.70308L2.44855 2.9516Z" fill="#6B7280"/>
<path fill-rule="evenodd" clip-rule="evenodd" d="M19.2486 5.3516L14.8 0.903076V16.2972L17.5515 19.0487C17.8947 19.3919 18.4108 19.4945 18.8592 19.3088C19.3077 19.1231 19.6 18.6855 19.6 18.2001V6.20013C19.6 5.88187 19.4736 5.57665 19.2486 5.3516Z" fill="#6B7280"/>
</svg>
